<?xml version="1.0" encoding="utf-8"?>
<!-- Generator: Adobe Illustrator 21.1.0, SVG Export Plug-In . SVG Version: 6.00 Build 0)  -->
<svg version="1.1" id="Layer_1" xmlns="http://www.w3.org/2000/svg" xmlns:xlink="http://www.w3.org/1999/xlink" x="0px" y="0px"
	 viewBox="0 0 600 68" style="enable-background:new 0 0 600 68;" xml:space="preserve">
<style type="text/css">
	.st0{fill:#FFFFFF;}
	.st1{fill:#A6A8AB;}
</style>
<path class="st0" d="M10.8,57.5H5V5.8h8.5c4.4,0,9,0.1,12.8,2.7s5.9,7.2,5.9,11.8c0,4.2-1.7,8.4-5,11.1c-3.5,2.9-8,3.4-12.3,3.4
	h-4.2C10.8,34.8,10.8,57.5,10.8,57.5z M10.8,29.5h3.8c6.4,0,11.8-2,11.8-9.3c0-8.4-6.8-9-13.5-9h-2.1C10.8,11.2,10.8,29.5,10.8,29.5
	z"/>
<rect x="48.6" y="5.8" class="st0" width="5.8" height="51.7"/>
<polygon class="st0" points="69.3,5.8 69.3,11.2 81.7,11.2 81.7,57.5 87.5,57.5 87.5,11.2 100,11.2 100,5.8 "/>
<polygon class="st0" points="110.4,5.8 110.4,11.2 122.9,11.2 122.9,57.5 128.7,57.5 128.7,11.2 141.3,11.2 141.3,5.8 "/>
<polygon class="st0" points="188.4,3 171.6,44.5 158,5.8 151.7,5.8 171.6,60.1 188.4,18.5 205,60.1 224.9,5.8 218.6,5.8 205,44.5 
	"/>
<path class="st0" d="M251.8,16.8l8.6,20.7h-17.5L251.8,16.8z M228.1,57.5h6.3l6.3-14.7h22.1l6.2,14.7h6.4L252,3.3L228.1,57.5z"/>
<polygon class="st0" points="279.8,5.8 279.8,11.2 292.3,11.2 292.3,57.5 298,57.5 298,11.2 310.7,11.2 310.7,5.8 "/>
<polygon class="st0" points="325.5,5.8 325.5,57.5 352.3,57.5 352.3,52.1 331.3,52.1 331.3,31.8 351.7,31.8 351.7,26.5 331.3,26.5 
	331.3,11.2 352.3,11.2 352.3,5.8 "/>
<path class="st0" d="M376.8,57.5H371V5.8h7.5c9.8,0,19,2.6,19,14.3c0,8-5,13.6-13,14.3L401,57.5h-7.1l-15.7-22.8h-1.4L376.8,57.5
	L376.8,57.5z M376.8,29.7h1.8c6.5,0,13.1-1.2,13.1-9.3c0-8.5-6.3-9.3-13.2-9.3h-1.7V29.7z"/>
<path class="st1" d="M430.8,57.5h-4.6V16.7h6.7c3.5,0,7.2,0.1,10.1,2.2c3,2.1,4.6,5.6,4.6,9.3c0,3.3-1.3,6.7-3.9,8.8
	c-2.7,2.2-6.3,2.7-9.7,2.7h-3.3v17.8H430.8z M430.8,35.4h3c5,0,9.3-1.6,9.3-7.3c0-6.7-5.4-7.2-10.6-7.2h-1.7V35.4z"/>
<polygon class="st1" points="458.6,16.7 458.6,57.5 474.4,57.5 474.4,53.3 463.2,53.3 463.2,16.7 "/>
<path class="st1" d="M499,25.4l6.8,16.2h-13.7L499,25.4z M480.3,57.5h5l5-11.5h17.4l4.8,11.5h5l-18.3-42.8L480.3,57.5z"/>
<path class="st1" d="M558.3,25.7c-3.3-3.4-7.7-5.4-12.4-5.4c-9,0-16.5,7.9-16.5,16.9s7.5,16.9,16.5,16.9c4.6,0,9-2.2,12.3-5.4v5.6
	c-3.5,2.5-7.9,4.1-12.2,4.1c-11.5,0-21.2-9.4-21.2-20.9c0-11.6,9.6-21.2,21.2-21.2c4.6,0,8.5,1.3,12.2,4.1v5.4H558.3z"/>
<polygon class="st1" points="571.1,16.7 571.1,57.5 592.3,57.5 592.3,53.3 575.7,53.3 575.7,37.2 591.8,37.2 591.8,33 575.7,33 
	575.7,21 592.3,21 592.3,16.7 "/>
</svg>
